<svg id="visual" viewBox="0 0 960 200" width="960" height="200" xmlns="http://www.w3.org/2000/svg" xmlns:xlink="http://www.w3.org/1999/xlink" version="1.1"><rect x="0" y="0" width="960" height="200" fill="#fff"></rect><path d="M0 31L22.8 37.3C45.7 43.7 91.3 56.3 137 60.2C182.7 64 228.3 59 274 52.7C319.7 46.3 365.3 38.7 411.2 37C457 35.3 503 39.7 548.8 41C594.7 42.3 640.3 40.7 686 38.8C731.7 37 777.3 35 823 35.3C868.7 35.7 914.3 38.3 937.2 39.7L960 41L960 0L937.2 0C914.3 0 868.7 0 823 0C777.3 0 731.7 0 686 0C640.3 0 594.7 0 548.8 0C503 0 457 0 411.2 0C365.3 0 319.7 0 274 0C228.3 0 182.7 0 137 0C91.3 0 45.7 0 22.8 0L0 0Z" fill="#000" stroke-linecap="round" stroke-linejoin="miter"></path></svg>