<svg id="visual" viewBox="0 0 900 450" width="900" height="450" xmlns="http://www.w3.org/2000/svg" xmlns:xlink="http://www.w3.org/1999/xlink" version="1.1"><rect x="0" y="0" width="900" height="450" fill="#FFFFFF"></rect><path d="M0 110L21.5 101C43 92 86 74 128.8 72.2C171.7 70.3 214.3 84.7 257.2 96.7C300 108.7 343 118.3 385.8 112.7C428.7 107 471.3 86 514.2 83C557 80 600 95 642.8 103.7C685.7 112.3 728.3 114.7 771.2 117.7C814 120.7 857 124.3 878.5 126.2L900 128L900 0L878.5 0C857 0 814 0 771.2 0C728.3 0 685.7 0 642.8 0C600 0 557 0 514.2 0C471.3 0 428.7 0 385.8 0C343 0 300 0 257.2 0C214.3 0 171.7 0 128.8 0C86 0 43 0 21.5 0L0 0Z" fill="#000000" stroke-linecap="round" stroke-linejoin="miter"></path></svg>